<svg xmlns="http://www.w3.org/2000/svg" width="1558" height="367" viewBox="0 0 1558 367" fill="none"><path d="M243.868 318.868C235.133 327.603 223.06 333.009 209.726 333C201.806 333 194.341 331.095 187.742 327.714C178.716 323.089 171.336 315.71 166.712 306.683C163.348 300.085 161.443 292.629 161.443 284.717V283.456C161.555 278.908 162.301 274.515 163.588 270.379C163.588 270.362 163.597 270.345 163.588 270.336C165.905 262.828 167.149 254.848 167.158 246.577C167.158 236.023 165.124 225.94 161.434 216.691C157.342 206.411 151.189 197.178 143.501 189.482C135.813 181.785 126.572 175.633 116.292 171.548C107.042 167.859 96.9602 165.834 86.4061 165.825C78.1345 165.825 70.1546 167.078 62.6466 169.395H62.6037C58.4679 170.682 54.0832 171.428 49.5269 171.54H48.2656C40.3629 171.54 32.8978 169.643 26.2994 166.271C17.2726 161.646 9.89337 154.267 5.26846 145.24C1.90488 138.668 0 131.203 0 123.274C0 109.94 5.39716 97.867 14.1322 89.1322C22.8672 80.3972 34.9486 75 48.2742 75H256.284C257.228 75 258 75.7722 258 76.7161V284.726C258 298.06 252.603 310.133 243.859 318.876L243.868 318.868Z" fill="#2BFF99"></path><path d="M88.1226 292.303C114.632 292.303 136.123 270.813 136.123 244.303C136.123 217.793 114.632 196.303 88.1226 196.303C61.6132 196.303 40.1226 217.794 40.1226 244.303C40.1226 270.812 61.6129 292.303 88.1226 292.303Z" fill="#2BFF99"></path><g clip-path="url(#clip0_2657_1938)"><path d="M590.292 187.455C590.292 145.666 559.248 114.225 517.856 114.225C476.067 114.225 445.023 145.666 445.023 187.455C445.023 229.244 476.067 260.687 517.856 260.687C559.248 260.687 590.292 229.245 590.292 187.455ZM410 187.455C410 126.96 453.382 81.1904 511.489 81.1904C545.318 81.1904 573.178 97.1104 590.292 122.582L596.292 85.9668H624.52V288.944H596.292L590.292 252.328C573.178 277.8 545.318 293.72 511.489 293.72C453.382 293.72 410 247.95 410 187.455Z" fill="#FFFFFF"></path><path d="M848.511 187.455C848.511 145.666 817.468 114.225 775.678 114.225C734.286 114.225 703.243 145.666 703.243 187.455C703.243 229.244 734.286 260.687 775.678 260.687C817.468 260.687 848.511 229.245 848.511 187.455ZM669.016 2.3877H703.243V122.582C720.356 97.1104 748.217 81.1904 782.046 81.1904C840.153 81.1904 883.933 126.96 883.933 187.455C883.933 247.95 840.153 293.72 782.046 293.72C748.217 293.72 720.356 277.8 703.243 252.328L697.243 288.944H669.016V2.3877Z" fill="#FFFFFF"></path><path d="M951.073 2.3877H916.846V288.944H951.073V2.3877Z" fill="#FFFFFF"></path><path d="M1192.34 234.651C1174.92 270.211 1137.22 293.72 1092.04 293.72C1029.55 293.72 982.988 247.95 982.988 187.455C982.988 126.96 1029.55 81.1904 1090.84 81.1904C1152.53 81.1904 1198.7 126.96 1198.7 187.455C1198.7 192.231 1198.3 197.405 1197.91 201.783H1019.6C1025.57 237.603 1054.23 262.278 1092.44 262.278C1119.79 262.278 1143.79 249.598 1155.77 230.375L1192.34 234.651ZM1020 171.138H1162.48C1156.51 137.308 1127.86 112.632 1090.84 112.632C1054.63 112.632 1026.77 136.512 1020 171.138Z" fill="#FFFFFF"></path><path d="M1241.84 117.011H1204.83V85.9668H1241.84V62.8828C1241.84 23.083 1266.12 0 1309.5 0H1333.78V31.4414H1312.69C1290 31.4414 1276.07 44.9736 1276.07 66.8633V85.9668H1330.6V117.011H1276.07V288.944H1241.84V117.011Z" fill="#FFFFFF"></path><path d="M1431.76 288.148L1343.41 85.9668H1382.41L1450.87 247.95L1519.32 85.9668H1557.53L1435.35 364.563H1398.33L1431.76 288.148Z" fill="#FFFFFF"></path></g><defs><clipPath id="clip0_2657_1938"><rect width="1147.53" height="364.563" fill="white" transform="translate(410)"></rect></clipPath></defs></svg>