<svg xmlns="http://www.w3.org/2000/svg" viewBox="0 0 360 360"><rect width="360" height="360" rx="84" fill="#0B1813"/><g transform="translate(51,-24)"><path d="M243.868 318.868C235.133 327.603 223.06 333.009 209.726 333C201.806 333 194.341 331.095 187.742 327.714C178.716 323.089 171.336 315.71 166.712 306.683C163.348 300.085 161.443 292.629 161.443 284.717V283.456C161.555 278.908 162.301 274.515 163.588 270.379C163.588 270.362 163.597 270.345 163.588 270.336C165.905 262.828 167.149 254.848 167.158 246.577C167.158 236.023 165.124 225.94 161.434 216.691C157.342 206.411 151.189 197.178 143.501 189.482C135.813 181.785 126.572 175.633 116.292 171.548C107.042 167.859 96.9602 165.834 86.4061 165.825C78.1345 165.825 70.1546 167.078 62.6466 169.395H62.6037C58.4679 170.682 54.0832 171.428 49.5269 171.54H48.2656C40.3629 171.54 32.8978 169.643 26.2994 166.271C17.2726 161.646 9.89337 154.267 5.26846 145.24C1.90488 138.668 0 131.203 0 123.274C0 109.94 5.39716 97.867 14.1322 89.1322C22.8672 80.3972 34.9486 75 48.2742 75H256.284C257.228 75 258 75.7722 258 76.7161V284.726C258 298.06 252.603 310.133 243.859 318.876L243.868 318.868Z" fill="#19E37C"/><path d="M88.1226 292.303C114.632 292.303 136.123 270.813 136.123 244.303C136.123 217.793 114.632 196.303 88.1226 196.303C61.6132 196.303 40.1226 217.794 40.1226 244.303C40.1226 270.812 61.6129 292.303 88.1226 292.303Z" fill="#19E37C"/></g></svg>
