<svg xmlns="http://www.w3.org/2000/svg" viewBox="2880 660 3200 880">
  <g fill-rule="evenodd">
    <polygon fill="#0cf" points="2931.2 894.2 3134.7 1013.6 3384.5 865.4 3432.4 893.5 3182.6 1041.7 3260.4 1087.4 3587.8 893.1 3384.3 773.7 3134.5 922 3086.6 893.9 3336.4 745.6 3258.7 700 2931.2 894.2"/>
    <path fill="#0cf" d="M3604.7,925.1l-327.4,194.2v380.7s327.4-194.2,327.4-194.2v-380.7ZM3355.1,1163.4l171.8-101.9v55.5l-171.8,101.9v-55.5ZM3526.9,1261.7l-171.8,101.9v-55.5l171.8-101.9v55.5Z"/>
    <path fill="#FFFFFF" d="M3902.3,1138.9c-14-6.1-25-14.9-33.2-26.4-8.1-11.5-12.6-25.1-13.3-41h34.2c1.2,15.2,6.6,27.1,16.3,35.5,9.7,8.5,24.2,12.8,43.4,12.8,30,0,45-11.5,45-34.5s-2.2-15.3-6.5-20.1c-4.3-4.8-10-8.4-17.1-10.8-7.1-2.4-19.3-5.8-36.4-10.2-14.8-4-27-8-36.5-12-9.5-4-17.5-9.9-24.2-17.9-6.6-7.9-9.9-18.1-9.9-30.8,0-18.4,6.7-32.7,20.1-43,13.4-10.3,31.7-15.5,54.9-15.5s44.3,6,59.2,18c14.9,12,23.1,28.7,24.8,50.1h-34.2c-1.8-13.2-6.7-23.1-14.7-29.9-8-6.7-19.6-10-34.8-10s-23.5,2.4-30.5,7.2-10.3,11.9-10.3,21.3,2.1,13.6,6.3,18c4.2,4.4,9.5,7.8,15.9,10,6.4,2.3,15.7,5,27.9,8,18.2,4.6,32.6,9,43.2,13.2,10.6,4.2,19.4,10.5,26.5,18.8,7.1,8.3,10.7,19.6,10.7,33.8s-6.7,35-20,46.8c-13.3,11.8-32.9,17.7-58.7,17.7s-34.3-3.1-48.3-9.2Z"/>
    <path fill="#FFFFFF" d="M4091.4,1133.7c-15.9-9.6-28.2-22.8-36.9-39.8-8.7-16.9-13.1-36-13.1-57.5s4.4-40.5,13.1-57.4c8.7-16.9,21-30.1,36.9-39.6,15.9-9.5,34.4-14.2,55.4-14.2s39.4,4.8,55.3,14.2c15.9,9.5,28.2,22.7,36.9,39.6,8.7,16.9,13,36.1,13,57.4s-4.4,40.6-13,57.5c-8.7,16.9-21,30.2-36.9,39.8-15.9,9.6-34.3,14.4-55.3,14.4s-39.5-4.8-55.4-14.4ZM4093.5,1096c11.7,15.7,29.4,23.5,53.2,23.5s41.5-7.8,53.2-23.5c11.7-15.7,17.5-35.6,17.5-59.6s-5.9-43.8-17.5-59.4c-11.7-15.6-29.5-23.4-53.2-23.4s-41.6,7.8-53.2,23.4c-11.7,15.6-17.6,35.4-17.6,59.4s5.9,43.9,17.6,59.6Z"/>
    <path fill="#FFFFFF" d="M4313.7,1133.8c-15.1-9.5-26.8-22.7-35.1-39.6-8.3-16.9-12.5-36-12.5-57.4s4.1-40.6,12.5-57.6c8.3-17,20-30.2,35.2-39.8,15.2-9.5,32.8-14.2,52.8-14.2s32.7,3.4,46,10.2c13.3,6.8,23.9,16,31.7,27.6,7.8,11.6,12.6,24.7,14.4,39.3h-34.5c-2.4-13.4-8.1-24.8-17.1-34.4-9-9.5-22.7-14.2-41.1-14.2s-38.7,7.9-49.4,23.7c-10.7,15.8-16,35.5-16,59.1s5.3,43.6,16,59.4c10.7,15.8,27.2,23.7,49.4,23.7s33.1-5.1,42.4-15.5c9.3-10.3,14.6-23,15.8-38.2h34.5c-1.6,16-6.3,30.2-14.1,42.6-7.8,12.4-18.4,22.1-31.8,29.1-13.4,7-28.9,10.5-46.5,10.5s-37.6-4.7-52.7-14.2Z"/>
    <path fill="#FFFFFF" d="M4481,929.4h33v214.5h-33v-214.5Z"/>
    <path fill="#FFFFFF" d="M4608.8,929.4h35.7l80.4,214.5h-36l-17.7-51.6h-89.7l-17.7,51.6h-34.8l79.8-214.5ZM4661.9,1064.4l-35.1-104.4h-.6l-34.8,104.4h70.5Z"/>
    <path fill="#FFFFFF" d="M4739.6,929.4h33v186h108.6v28.5h-141.6v-214.5Z"/>
    <path fill="#FFFFFF" d="M4899.5,929.4h90.3c22,0,39.2,4.8,51.5,14.2,12.3,9.5,18.5,22.8,18.5,39.8s-11.1,37.1-33.3,44.7v.6c12.2,2.2,22.2,7.7,30,16.5,7.8,8.8,11.7,20.8,11.7,36s-6.5,35.7-19.5,46.5c-13,10.8-30.8,16.2-53.4,16.2h-95.7v-214.5ZM4988.9,1018.5c13,0,22.3-2.5,27.9-7.6,5.6-5.1,8.4-12.6,8.4-22.7s-2.9-17-8.7-22.3c-5.8-5.3-14.2-8-25.2-8h-58.8v60.6h56.4ZM4992.8,1115.4c14.8,0,25.3-3.2,31.5-9.5,6.2-6.3,9.3-14.9,9.3-26s-3.2-19.9-9.6-26.1c-6.4-6.2-15.3-9.3-26.7-9.3h-64.8v70.8h60.3Z"/>
    <path fill="#FFFFFF" d="M5092.1,929.4h89.4c23.6,0,41.6,5.4,54.1,16,12.5,10.7,18.8,26,18.8,45.8s-3.7,24.8-11.1,34.2c-7.4,9.4-17.1,15.5-29.1,18.3v.6c10.4,2,18.2,6.9,23.6,14.7,5.3,7.8,8.8,16.4,10.5,25.8,1.7,9.4,2.9,20.4,3.8,33,.6,8.2,1.2,14.1,1.8,17.7.6,3.6,1.8,5.7,3.6,6.3v2.1h-35.4c-1.4-1.2-2.2-3.3-2.6-6.5-.3-3.1-.6-8.2-.8-15.5-.2-12-1-22.2-2.5-30.6s-5-15.8-10.5-22c-5.5-6.3-14-9.5-25.3-9.5h-55.2v84h-33v-214.5ZM5174.3,1031.4c15.2,0,26.8-3.2,34.8-9.8,8-6.5,12-15.8,12-28s-3.7-20.7-11-26.7c-7.3-6-19-9-35.2-9h-49.8v73.5h49.2Z"/>
    <path fill="#FFFFFF" d="M5341.1,929.4h35.7l80.4,214.5h-36l-17.7-51.6h-89.7l-17.7,51.6h-34.8l79.8-214.5ZM5394.2,1064.4l-35.1-104.4h-.6l-34.8,104.4h70.5Z"/>
    <path fill="#FFFFFF" d="M5471.9,929.4h37.8l99.6,165h.6v-165h33.3v214.5h-37.8l-99.9-165h-.6v165h-33v-214.5Z"/>
    <path fill="#FFFFFF" d="M5678.3,929.4h81.6c30,0,53.4,9.4,70.2,28,16.8,18.7,25.2,45.2,25.2,79.4s-8.3,60.6-24.9,79.2c-16.6,18.6-39.9,27.9-69.9,27.9h-82.2v-214.5ZM5758.4,1115.4c41.8,0,62.7-26.2,62.7-78.6s-20.9-78.9-62.7-78.9h-47.1v157.5h47.1Z"/>
    <path fill="#FFFFFF" d="M5912.9,1138.9c-14-6.1-25-14.9-33.2-26.4-8.1-11.5-12.6-25.1-13.3-41h34.2c1.2,15.2,6.6,27.1,16.3,35.5,9.7,8.5,24.2,12.8,43.3,12.8,30,0,45-11.5,45-34.5s-2.2-15.3-6.4-20.1c-4.3-4.8-10-8.4-17.1-10.8-7.1-2.4-19.3-5.8-36.5-10.2-14.8-4-27-8-36.4-12-9.5-4-17.5-9.9-24.2-17.9-6.6-7.9-9.9-18.1-9.9-30.8,0-18.4,6.7-32.7,20.1-43,13.4-10.3,31.7-15.5,54.9-15.5s44.3,6,59.2,18c14.9,12,23.1,28.7,24.8,50.1h-34.2c-1.8-13.2-6.7-23.1-14.7-29.9-8-6.7-19.6-10-34.8-10s-23.6,2.4-30.5,7.2c-6.9,4.8-10.3,11.9-10.3,21.3s2.1,13.6,6.3,18c4.2,4.4,9.5,7.8,15.9,10,6.4,2.3,15.7,5,27.9,8,18.2,4.6,32.6,9,43.2,13.2,10.6,4.2,19.4,10.5,26.5,18.8,7.1,8.3,10.6,19.6,10.6,33.8s-6.7,35-19.9,46.8c-13.3,11.8-32.9,17.7-58.7,17.7s-34.3-3.1-48.3-9.2Z"/>
  </g>
</svg>
