<svg width="351" height="104" viewBox="0 0 351 104" fill="none" xmlns="http://www.w3.org/2000/svg">
<path fill-rule="evenodd" clip-rule="evenodd" d="M4.89396 2.82372C2.67655 1.5435 0.878991 2.58133 0.87899 5.14177L0.878989 59.085C0.878989 61.6455 2.67655 64.7589 4.89396 66.0392L24.1443 77.1534L24.1443 44.6111C24.1443 42.3256 24.9158 40.1124 25.9414 38.3359C26.967 36.5594 28.498 34.7847 30.4773 33.642L44.3751 25.6181L4.89396 2.82372ZM48.9038 28.3568L32.7954 37.657C30.578 38.9372 28.7804 42.0506 28.7804 44.6111L28.7804 79.83L47.9777 90.9136C48.2742 91.0847 48.5632 91.2145 48.8413 91.3047L51.8996 89.539C51.9605 89.253 51.9927 88.9379 51.9927 88.5955L51.9927 34.6523C51.9927 32.4599 50.6748 29.862 48.9038 28.3568Z" fill="#353CEE"/>
<path d="M28.7813 44.6127C28.7813 42.0522 30.5788 38.9387 32.7962 37.6585L93.1457 2.81572C95.3631 1.5355 97.1607 2.57332 97.1607 5.13376L97.1607 58.7734C97.1607 61.3339 95.3631 64.4473 93.1457 65.7276L32.7962 100.57C30.5788 101.851 28.7813 100.813 28.7813 98.2523L28.7813 44.6127Z" fill="#031837"/>
<path d="M172.93 30.6351V48.3135H150.081V30.6351H141.876V73.4546H150.081V55.1034H172.93V73.4546H181.136V30.6351H172.93Z" fill="#031837"/>
<path d="M230.089 73.4546H239.683L219.99 49.7816L238.547 30.6351H229.332L207.492 52.5954V30.6351H199.287V73.4546H207.492V62.505L214.499 55.5316L230.089 73.4546Z" fill="#031837"/>
<path d="M270.43 74.0663C277.689 74.0663 283.874 71.5583 287.977 66.9093L282.675 62.0157C279.456 65.4412 275.479 67.0928 270.872 67.0928C261.719 67.0928 255.092 60.8534 255.092 52.0449C255.092 43.2363 261.719 36.9969 270.872 36.9969C275.479 36.9969 279.456 38.6485 282.675 42.0129L287.977 37.1804C283.874 32.5314 277.689 30.0234 270.493 30.0234C256.922 30.0234 246.823 39.2602 246.823 52.0449C246.823 64.8295 256.922 74.0663 270.43 74.0663Z" fill="#031837"/>
<path d="M350.5 73.4546L350.437 30.6351H343.683L326.452 59.0183L308.905 30.6351H302.151V73.4546H309.978V45.4384L324.495 68.5609H328.156L342.673 45.0714L342.736 73.4546H350.5Z" fill="#031837"/>
</svg>
