<?xml version="1.0" encoding="UTF-8" standalone="no"?>
<!-- Created with Inkscape (http://www.inkscape.org/) -->
<svg
   xmlns:svg="http://www.w3.org/2000/svg"
   xmlns="http://www.w3.org/2000/svg"
   version="1.0"
   width="616.68555"
   height="71.245674"
   id="svg2">
  <defs
     id="defs4">
    <clipPath
       id="clipPath2456">
      <path
         d="M 0,0 L 595.276,0 L 595.276,419.528 L 0,419.528 L 0,0 z"
         id="path2458" />
    </clipPath>
    <clipPath
       id="clipPath2442">
      <path
         d="M 11.48,118.134 L 184.393,118.134 L 184.393,147.827 L 11.48,147.827 L 11.48,118.134 z"
         id="path2444" />
    </clipPath>
    <clipPath
       id="clipPath2422">
      <path
         d="M 22.819,123.006 L 161.894,123.006 L 161.894,139.085 L 22.819,139.085 L 22.819,123.006 z"
         id="path2424" />
    </clipPath>
    <clipPath
       id="clipPath2400">
      <path
         d="M 0,0 L 595.276,0 L 595.276,419.528 L 0,419.528 L 0,0 z"
         id="path2402" />
    </clipPath>
  </defs>
  <g
     transform="translate(-25.048307,-570.52775)"
     id="layer1">
    <g
       transform="matrix(4.4345857,0,0,-4.4345857,-76.144504,1187.3121)"
       id="g2418">
      <g
         clip-path="url(#clipPath2422)"
         id="g2420">
        <g
           transform="matrix(0.1639252,0,0,-0.1639252,-109.40939,-233.21198)"
           id="g2426">
          <g
             transform="translate(847.0083,-2176.0596)"
             id="g2428">
            <path
               d="M 0,0 L -40.405,0 L -40.405,-91.937 L 0,-91.937 C 9.077,-91.937 16.689,-84.471 16.689,-75.248 L 16.689,-16.689 C 16.689,-7.466 9.077,0 0,0 M -5.856,-73.052 L -17.567,-73.052 L -17.567,-20.057 L -5.856,-20.057 L -5.856,-73.052 z M 26.059,-91.937 L 48.75,-91.937 L 48.75,0 L 26.059,0 L 26.059,-91.937 z M 80.812,-72.027 L 80.812,-56.802 L 103.064,-56.802 L 103.064,-37.478 L 80.812,-37.478 L 80.812,-19.91 L 107.749,-19.91 L 107.749,0 L 58.998,0 L 58.998,-91.937 L 107.749,-91.937 L 107.749,-72.027 L 80.812,-72.027"
               id="path2430"
               style="fill:#006eae;fill-opacity:1;fill-rule:nonzero;stroke:none" />
          </g>
        </g>
        <g
           transform="matrix(0.1639252,0,0,-0.1639252,-109.40939,-233.21198)"
           id="g2432">
          <g
             transform="translate(1013.167,-2173.1318)"
             id="g2434">
            <path
               d="M 0,0 C -27.083,0 -49.042,-21.959 -49.042,-49.042 C -49.042,-76.126 -27.083,-98.085 0,-98.085 C 27.23,-98.085 49.19,-76.126 49.19,-49.042 C 49.19,-21.959 27.23,0 0,0 M 45.676,-47.725 C 44.944,-45.09 42.163,-41.284 40.699,-40.112 C 40.26,-44.651 39.381,-49.189 37.917,-53.581 C 37.624,-52.996 36.893,-51.824 37.039,-51.531 C 38.503,-47.286 39.381,-44.065 39.82,-39.38 C 37.332,-37.185 33.672,-35.135 30.158,-33.964 C 30.158,-38.941 29.865,-44.065 28.987,-48.164 C 38.21,-51.971 44.212,-60.169 42.456,-68.367 C 42.309,-66.903 42.016,-64.707 41.577,-63.536 C 39.82,-67.196 35.721,-71.002 32.208,-74.369 C 32.647,-76.419 32.5,-77.883 31.915,-79.64 C 32.647,-79.054 32.94,-78.176 33.379,-77.297 C 36.746,-75.541 40.845,-72.027 42.163,-69.538 L 42.309,-69.538 C 41.284,-73.637 37.185,-79.932 31.769,-84.617 C 12.883,-101.599 -12.589,-98.671 -27.961,-87.545 C -44.504,-75.687 -52.556,-52.41 -44.357,-31.621 C -43.04,-28.547 -42.015,-27.229 -40.112,-24.448 C -39.966,-23.569 -39.526,-21.959 -38.794,-21.374 C -38.941,-21.813 -38.941,-22.398 -39.087,-22.984 C -26.644,-7.905 -1.61,-3.806 2.636,-5.271 L 2.636,-5.416 C -5.709,-6.002 -18.592,-9.809 -26.205,-14.786 C -26.351,-17.128 -25.765,-19.617 -25.473,-22.545 C -25.765,-23.131 -26.351,-23.716 -26.644,-24.155 C -27.229,-21.374 -27.668,-18.592 -27.522,-15.664 C -31.621,-18.007 -37.331,-22.691 -39.087,-25.326 C -39.38,-27.376 -39.087,-30.743 -38.502,-33.085 C -38.794,-33.671 -38.941,-34.403 -38.941,-35.135 C -30.45,-25.619 -19.031,-20.202 -8.344,-17.128 C 11.419,-11.419 31.622,-16.835 37.185,-23.277 C 33.525,-20.788 30.158,-19.471 28.255,-19.031 C 29.426,-22.984 30.012,-27.669 30.012,-31.914 C 29.573,-31.621 28.694,-30.597 28.694,-30.304 C 28.548,-26.352 28.109,-22.398 27.23,-18.738 C 22.106,-17.128 17.714,-16.396 11.419,-16.25 C 13.03,-21.521 13.908,-25.326 14.494,-28.986 C 13.762,-28.693 12.591,-27.815 12.591,-27.669 C 12.151,-23.862 11.126,-19.91 10.102,-16.25 C 0.732,-16.104 -12.882,-18.885 -24.594,-25.766 C -23.569,-29.572 -22.398,-32.793 -21.081,-36.307 C -21.374,-36.892 -21.666,-37.771 -21.959,-38.502 C -7.026,-30.011 12.737,-26.644 28.255,-31.621 C 36.746,-34.403 44.944,-40.259 45.823,-47.725 L 45.676,-47.725 z M -40.405,-27.083 C -41.43,-28.84 -42.162,-30.304 -43.04,-32.061 C -44.943,-36.307 -45.382,-40.991 -45.675,-45.383 C -44.065,-41.577 -41.869,-38.648 -39.526,-35.867 C -40.258,-32.939 -40.551,-30.304 -40.405,-27.083 M -45.529,-53.142 C -45.675,-57.973 -44.211,-63.39 -41.869,-68.221 C -42.015,-66.61 -41.723,-63.829 -41.137,-61.926 C -42.455,-59.876 -44.504,-56.362 -45.529,-53.142 M -38.941,-38.356 C -41.283,-41.284 -43.918,-45.676 -44.797,-49.482 C -44.065,-51.971 -42.601,-55.484 -40.991,-58.119 C -40.991,-58.998 -40.844,-59.583 -40.698,-60.461 C -39.234,-56.216 -37.331,-52.556 -34.403,-49.335 C -36.306,-45.676 -37.916,-42.309 -38.941,-38.356 M -42.455,-64.707 C -43.187,-62.804 -43.772,-60.901 -44.065,-59.144 C -43.48,-60.315 -42.747,-61.486 -42.162,-62.365 C -42.308,-63.097 -42.455,-63.829 -42.455,-64.707 M -41.137,-54.459 C -42.015,-52.996 -43.04,-50.36 -43.48,-49.042 C -42.601,-46.261 -41.283,-43.626 -39.966,-41.869 C -39.526,-42.748 -38.794,-43.333 -38.209,-43.919 C -39.673,-47.432 -40.551,-50.653 -41.137,-54.459 M -38.941,-64.707 C -39.673,-67.928 -39.526,-71.002 -39.087,-72.173 C -37.916,-73.637 -34.403,-77.004 -31.621,-78.468 C -31.328,-78.908 -31.036,-79.493 -30.45,-80.079 C -30.889,-78.176 -30.889,-76.126 -30.304,-73.345 C -34.11,-70.27 -36.16,-68.367 -38.941,-64.707 M -31.768,-75.687 C -34.11,-74.662 -36.306,-73.198 -38.356,-71.295 C -38.502,-70.417 -38.502,-68.66 -38.209,-67.342 C -36.452,-69.538 -33.963,-71.734 -31.621,-73.491 C -31.768,-74.369 -31.768,-74.809 -31.768,-75.687 M -32.938,-51.971 C -34.988,-54.898 -37.038,-57.827 -38.209,-61.926 C -35.574,-65.146 -33.524,-67.342 -30.45,-69.831 C -30.304,-70.563 -30.304,-71.002 -30.011,-71.734 C -29.132,-68.367 -27.229,-65.292 -25.18,-62.804 C -27.376,-60.169 -30.889,-55.63 -32.938,-51.971 M -37.624,-51.678 C -37.331,-50.067 -37.038,-49.335 -36.599,-48.018 C -36.306,-48.604 -36.16,-48.896 -36.013,-49.335 C -36.745,-50.214 -36.892,-50.653 -37.624,-51.678 M -26.058,-26.937 C -30.304,-29.719 -34.695,-33.378 -37.477,-36.745 C -36.599,-39.82 -34.842,-43.626 -33.524,-46.261 C -33.671,-47.14 -33.671,-47.579 -33.671,-48.457 C -30.596,-44.943 -27.376,-42.162 -22.398,-38.941 C -23.862,-34.988 -25.033,-31.329 -26.058,-26.937 M -36.892,-27.815 L -36.892,-25.912 C -36.013,-24.595 -33.524,-22.545 -31.768,-21.081 L -31.768,-22.691 C -33.378,-24.009 -35.574,-26.205 -36.892,-27.815 M -29.864,-63.097 C -32.061,-62.365 -34.549,-61.193 -36.306,-60.022 C -35.574,-57.973 -34.403,-55.923 -33.231,-54.313 C -32.061,-56.07 -30.889,-57.827 -29.718,-59.291 C -29.864,-60.461 -29.864,-61.633 -29.864,-63.097 M -36.306,-30.597 C -35.574,-29.133 -32.5,-26.498 -31.036,-25.326 C -30.889,-25.473 -30.743,-25.766 -30.596,-26.059 C -31.914,-26.937 -35.135,-29.426 -36.306,-30.597 M -35.427,-37.771 C -35.574,-37.331 -35.574,-37.038 -35.72,-36.452 C -35.135,-35.721 -33.817,-34.403 -33.085,-33.817 C -33.963,-35.135 -34.695,-36.599 -35.427,-37.771 M -30.157,-68.074 C -31.182,-67.049 -33.085,-65.292 -34.256,-64.122 C -33.231,-64.561 -30.743,-65.439 -29.864,-65.732 L -29.864,-66.903 L -30.157,-68.074 z M -29.864,-82.128 C -31.036,-81.543 -32.646,-80.518 -33.817,-79.64 L -33.963,-79.64 C -32.646,-81.25 -30.45,-83.446 -28.839,-84.617 C -29.279,-83.739 -29.718,-82.86 -29.864,-82.128 M -26.058,-39.966 C -27.815,-41.284 -30.157,-43.187 -31.621,-44.504 C -32.353,-44.065 -32.5,-43.919 -33.231,-43.333 C -33.524,-42.894 -33.817,-42.162 -33.963,-41.577 C -32.207,-37.624 -29.864,-33.817 -27.083,-30.157 L -26.937,-30.304 C -26.351,-31.914 -25.473,-34.842 -24.887,-36.452 C -25.326,-37.624 -25.765,-38.648 -26.058,-39.966 M -21.374,-41.43 C -25.473,-44.358 -28.4,-46.7 -31.328,-50.067 C -28.693,-54.313 -26.79,-56.802 -24.155,-60.022 C -24.301,-60.608 -24.301,-61.193 -24.301,-61.779 C -21.666,-58.705 -18.592,-56.216 -15.371,-54.167 C -17.421,-50.36 -19.47,-46.115 -21.374,-41.43 M -28.839,-51.239 C -28.986,-50.946 -29.279,-50.507 -29.572,-49.921 C -29.425,-49.774 -29.279,-49.628 -29.279,-49.482 C -28.986,-49.628 -28.693,-49.628 -28.547,-49.774 C -28.547,-50.214 -28.693,-50.653 -28.839,-51.239 M -15.078,-81.835 C -19.763,-80.079 -24.594,-77.444 -27.376,-75.541 C -27.668,-77.297 -27.522,-79.64 -27.083,-80.957 C -23.276,-82.714 -19.617,-83.885 -16.103,-84.617 C -15.811,-84.91 -15.518,-85.203 -15.078,-85.496 C -15.371,-84.324 -15.371,-82.86 -15.078,-81.835 M -25.912,-11.565 L -27.083,-12.736 C -27.083,-11.712 -26.351,-9.955 -25.326,-9.076 C -25.619,-9.955 -25.765,-10.687 -25.912,-11.565 M -23.13,-65.146 C -24.741,-67.489 -26.205,-69.978 -26.79,-72.466 C -23.276,-74.955 -19.177,-77.004 -15.371,-78.615 C -15.225,-79.2 -15.078,-79.786 -14.786,-80.225 C -14.493,-78.761 -13.468,-76.711 -12.297,-75.394 C -16.396,-72.173 -19.909,-68.953 -23.13,-65.146 M -14.639,-87.398 C -18.153,-86.667 -22.252,-85.496 -26.205,-83.885 C -25.765,-85.056 -24.448,-87.252 -23.13,-88.13 C -21.813,-88.716 -16.688,-89.448 -14.493,-89.302 C -14.2,-89.448 -13.907,-89.448 -13.468,-89.595 C -14.054,-88.863 -14.346,-87.984 -14.639,-87.398 M -23.276,-58.559 C -24.448,-57.387 -25.326,-56.216 -26.205,-54.898 C -26.058,-53.581 -25.912,-51.971 -25.619,-50.653 C -22.837,-51.385 -20.642,-51.678 -18.006,-51.824 C -17.713,-52.41 -17.421,-53.142 -17.128,-53.581 C -19.324,-55.045 -21.666,-56.948 -23.276,-58.559 M -15.078,-77.444 C -18.592,-75.833 -22.106,-74.077 -25.473,-71.734 C -25.033,-70.417 -24.155,-68.66 -23.423,-67.635 C -23.13,-67.635 -22.837,-67.781 -22.691,-67.781 C -20.349,-70.417 -16.688,-73.491 -13.907,-75.541 C -14.346,-76.272 -14.786,-76.711 -15.078,-77.444 M -25.033,-47.579 C -24.887,-46.7 -24.741,-46.115 -24.448,-45.383 C -23.862,-44.797 -22.837,-43.919 -22.106,-43.479 C -21.374,-45.09 -20.642,-46.7 -19.763,-48.604 C -21.52,-48.457 -23.569,-48.018 -25.033,-47.579 M -24.448,-17.714 L -24.448,-16.543 C -23.423,-16.104 -20.934,-15.225 -19.324,-14.933 C -20.349,-15.371 -23.569,-16.981 -24.448,-17.714 M -16.396,-83.299 C -17.713,-83.007 -21.959,-81.835 -24.155,-80.811 C -22.106,-81.25 -18.885,-81.835 -17.274,-81.982 C -16.981,-82.128 -16.542,-82.275 -16.396,-82.275 L -16.396,-83.299 z M -23.716,-21.666 C -23.716,-21.374 -23.862,-20.788 -23.862,-20.349 C -22.837,-19.617 -19.324,-17.567 -17.274,-16.981 L -17.128,-16.981 C -19.177,-18.153 -22.544,-20.642 -23.716,-21.666 M -21.813,-28.84 C -22.106,-27.962 -22.398,-27.083 -22.544,-26.352 C -21.813,-25.912 -20.642,-25.326 -19.909,-25.033 C -20.642,-26.205 -21.227,-27.669 -21.813,-28.84 M -21.374,-87.398 C -21.52,-87.106 -21.813,-86.813 -22.106,-86.374 C -19.763,-87.106 -17.421,-87.691 -15.371,-88.13 L -15.225,-88.423 C -17.421,-88.423 -19.909,-87.984 -21.374,-87.398 M -14.054,-56.509 C -16.688,-58.266 -19.617,-60.901 -21.52,-62.95 C -17.128,-67.489 -13.761,-70.417 -11.272,-72.173 L -11.272,-74.223 C -9.808,-72.466 -8.198,-71.002 -5.856,-69.538 C -8.783,-65.292 -11.272,-61.633 -14.054,-56.509 M -19.324,-35.574 C -19.617,-34.842 -20.056,-33.964 -20.202,-33.231 C -18.885,-33.671 -17.274,-33.964 -15.957,-33.964 C -17.128,-34.55 -18.299,-35.135 -19.324,-35.574 M -16.542,-65.878 C -17.421,-65 -18.592,-63.975 -19.763,-62.658 C -18.885,-61.779 -17.128,-60.169 -15.518,-58.998 C -15.371,-61.193 -15.078,-63.682 -14.932,-65.878 L -16.542,-65.878 z M 14.055,-44.211 C 14.055,-39.966 13.615,-35.428 13.176,-31.183 C 2.05,-31.036 -10.687,-34.696 -19.324,-40.112 C -17.713,-43.626 -15.518,-48.311 -13.614,-51.239 C -13.761,-51.824 -14.054,-52.703 -14.2,-53.435 C -6.441,-48.311 5.563,-45.09 15.08,-45.383 C 14.787,-44.943 14.494,-44.651 14.055,-44.211 M -14.932,-31.036 C -16.25,-30.89 -17.713,-30.597 -19.031,-30.304 C -18.153,-28.108 -16.396,-24.888 -15.078,-22.838 C -14.346,-22.545 -13.907,-22.398 -13.322,-22.105 C -13.907,-25.033 -14.493,-28.254 -14.932,-31.036 M -15.811,-43.626 C -16.25,-42.748 -16.688,-41.577 -17.274,-40.552 C -16.688,-40.112 -16.103,-39.82 -15.518,-39.673 C -15.664,-40.698 -15.811,-42.601 -15.811,-43.626 M -11.565,-91.937 C -12.882,-91.937 -15.078,-91.791 -16.25,-91.351 L -16.25,-91.498 C -14.932,-92.083 -11.272,-93.254 -9.515,-93.401 C -10.247,-92.961 -11.126,-92.376 -11.565,-91.937 M -12.15,-48.896 L -12.589,-48.896 C -12.736,-45.676 -12.589,-41.284 -12.297,-38.063 C -11.418,-37.624 -8.93,-36.599 -6.148,-35.721 L -5.563,-37.771 C -9.662,-39.966 -12.297,-44.211 -12.15,-48.896 M -11.711,-65.878 C -11.857,-64.707 -12.15,-63.39 -12.15,-62.365 C -11.272,-63.682 -10.687,-64.561 -9.808,-65.732 C -10.54,-65.732 -10.833,-65.878 -11.711,-65.878 M -11.711,-83.007 C -11.857,-83.739 -11.857,-84.617 -11.711,-85.203 C -8.783,-85.788 -3.952,-86.374 -1.024,-86.081 C -4.538,-85.496 -9.515,-84.031 -11.711,-83.007 M -11.711,-31.183 C -11.272,-28.108 -10.833,-24.448 -10.101,-21.374 L -7.466,-30.743 C -8.93,-31.036 -10.394,-31.183 -11.711,-31.183 M 13.176,-62.365 C 13.615,-58.412 14.055,-53.435 14.055,-47.725 C 5.563,-47.579 -5.416,-51.092 -11.565,-54.752 C -9.076,-59.144 -6.441,-63.097 -3.952,-66.61 C -3.952,-67.196 -4.099,-67.781 -4.538,-68.66 C 1.025,-65.292 7.76,-63.536 14.201,-63.536 C 13.762,-63.243 13.469,-62.804 13.176,-62.365 M -10.394,-71.295 L -10.833,-70.856 C -11.126,-70.124 -11.126,-69.246 -11.272,-68.513 C -10.101,-68.367 -9.369,-68.367 -8.051,-68.221 C -7.905,-68.513 -7.612,-68.806 -7.612,-68.953 C -8.491,-69.685 -9.515,-70.563 -10.394,-71.295 M -9.515,-77.59 C -10.247,-78.468 -10.687,-79.347 -10.979,-80.225 C -8.344,-81.396 -2.635,-83.007 0.586,-83.592 C -3.074,-81.982 -6.88,-79.64 -9.515,-77.59 M -10.833,-87.984 C -10.54,-88.57 -10.247,-89.009 -9.808,-89.448 C -7.319,-89.741 -2.781,-89.155 -1.024,-88.57 C -4.245,-88.716 -8.198,-88.423 -10.833,-87.984 M -9.662,-16.25 L -10.54,-12.59 C -10.833,-11.858 -8.637,-11.126 -8.491,-12.004 L -7.905,-13.907 C -7.905,-14.64 -8.93,-15.811 -9.662,-16.25 M -1.756,-46.408 C -4.977,-47.432 -7.905,-48.604 -10.247,-49.774 C -10.54,-46.261 -8.491,-43.187 -4.831,-41.577 C -1.61,-40.112 2.782,-40.844 4.246,-42.309 C 3.221,-43.772 1.172,-45.529 -1.756,-46.408 M 8.199,-55.191 C 6.735,-56.07 4.393,-55.63 3.221,-55.045 L 4.832,-60.608 C 4.685,-61.486 3.661,-63.097 2.782,-63.536 L 1.025,-57.095 C 0.879,-57.973 0.586,-58.851 0.147,-59.583 C -3.513,-59.583 -7.173,-57.534 -8.783,-54.752 C -4.977,-52.703 1.757,-50.067 9.077,-49.335 C 9.663,-51.092 9.37,-53.728 8.199,-55.191 M -6.002,-30.304 L -8.637,-20.349 C -7.905,-20.202 -7.026,-19.91 -6.294,-19.764 L -4.099,-27.815 C -4.099,-28.693 -5.27,-29.719 -6.002,-30.304 M -3.513,-64.854 C -4.831,-62.95 -6.002,-61.34 -8.051,-57.973 L -7.905,-57.973 C -5.856,-60.315 -2.195,-61.34 0.586,-61.193 L 1.318,-63.975 C -0.146,-64.415 -2.195,-64.707 -3.513,-64.854 M -3.806,-72.173 C -5.124,-73.052 -6.587,-74.223 -7.466,-74.955 C -4.099,-77.59 -0.438,-79.932 3.514,-81.689 C 1.172,-79.054 -1.61,-75.248 -3.806,-72.173 M -6.88,-91.937 C -6.441,-92.229 -5.416,-92.669 -4.831,-92.961 C -2.927,-92.522 -0.585,-91.351 0.879,-90.473 C -1.61,-91.351 -4.538,-91.937 -6.88,-91.937 M -5.709,-74.662 C -5.416,-74.369 -4.684,-73.93 -4.392,-73.637 C -3.074,-75.394 -1.317,-77.444 -0.292,-78.468 C -1.756,-77.59 -4.392,-75.833 -5.709,-74.662 M -4.245,-36.745 L -4.684,-35.135 C -4.245,-34.988 -3.074,-34.55 -2.342,-34.403 C -2.342,-35.428 -3.367,-36.16 -4.245,-36.745 M -2.049,-29.279 L -4.392,-20.202 C -2.488,-22.398 -0.146,-25.033 1.611,-27.522 C 0.44,-28.254 -0.878,-28.84 -2.049,-29.279 M 4.246,-25.912 C 2.343,-23.569 0.293,-20.935 -1.61,-18.885 C -1.17,-18.738 -0.292,-18.738 0.147,-18.592 C 2.782,-19.91 5.124,-21.374 7.467,-22.984 C 6.588,-23.862 4.978,-25.326 4.246,-25.912 M 3.953,-68.367 C 2.196,-68.953 0.586,-69.685 -1.024,-70.417 C 1.464,-73.93 4.1,-77.297 6.881,-80.225 L 3.953,-68.367 z M -0.878,-12.59 C 0.879,-12.297 4.685,-11.858 7.174,-12.15 C 7.467,-12.59 7.613,-13.029 7.76,-13.469 C 6.003,-13.029 1.318,-12.59 -0.878,-12.59 M 10.98,-42.601 C 8.931,-38.648 4.539,-36.16 -0.146,-36.307 L -0.731,-34.11 C 1.172,-33.817 3.661,-33.378 5.563,-33.085 C 7.76,-36.452 9.809,-39.38 11.419,-42.455 L 10.98,-42.601 z M -0.292,-94.279 C 0.44,-94.426 1.757,-94.426 2.636,-94.426 C 3.075,-94.133 4.1,-92.815 4.539,-91.644 C 3.368,-92.815 0.879,-93.986 -0.292,-94.279 M 0.293,-9.955 C 1.904,-9.223 4.685,-8.637 5.856,-8.637 C 6.003,-9.076 6.295,-9.369 6.442,-9.662 C 5.124,-9.662 1.464,-9.809 0.293,-9.955 M 0.879,-70.709 C 1.464,-70.417 2.196,-70.124 2.782,-69.831 L 4.685,-75.979 C 3.807,-74.809 1.611,-71.88 0.879,-70.709 M 9.37,-20.788 C 7.906,-19.617 6.588,-18.885 4.978,-18.007 C 6.442,-17.86 7.76,-17.714 9.077,-17.714 C 9.224,-18.445 9.516,-19.178 9.663,-20.202 C 9.663,-20.349 9.37,-20.495 9.37,-20.788 M 6.003,-28.108 C 7.613,-27.083 8.638,-25.912 9.809,-24.741 L 10.834,-25.473 C 10.98,-26.205 11.126,-26.937 11.126,-27.669 C 9.37,-27.669 7.613,-27.815 6.003,-28.108 M 11.859,-60.461 C 10.249,-61.193 8.638,-61.779 6.881,-62.365 L 6.149,-59.729 C 9.663,-57.827 11.859,-54.606 12.444,-51.385 C 12.444,-54.313 12.151,-57.534 11.859,-60.461 M 9.077,-13.029 C 8.345,-10.687 7.32,-8.198 6.442,-6.148 C 8.345,-8.491 9.956,-12.004 10.541,-14.2 C 10.249,-14.054 9.224,-13.176 9.077,-13.029 M 6.735,-67.635 L 10.102,-79.64 C 11.126,-75.541 12.005,-71.002 12.591,-66.61 C 10.541,-66.903 8.784,-67.049 6.735,-67.635 M 9.224,-91.644 C 8.931,-92.522 7.76,-93.84 7.027,-94.426 C 7.76,-94.279 9.077,-94.133 9.809,-93.986 C 9.663,-93.108 9.516,-92.522 9.224,-91.644 M 7.027,-85.935 C 6.735,-86.667 6.881,-87.252 7.32,-87.691 C 7.027,-86.959 7.467,-86.374 7.76,-86.081 C 8.638,-85.056 11.566,-84.324 12.444,-85.642 C 13.03,-86.959 11.273,-88.13 9.663,-88.57 C 11.419,-88.716 14.64,-86.813 13.908,-84.91 C 12.883,-82.714 7.906,-83.592 7.027,-85.935 M 9.956,-74.662 L 8.492,-68.221 C 9.077,-68.074 10.102,-67.928 10.834,-67.928 C 10.687,-69.685 10.394,-72.466 9.956,-74.662 M 9.077,-32.793 C 9.956,-32.646 10.834,-32.646 11.712,-32.646 C 11.859,-34.11 12.151,-36.014 12.151,-37.771 C 11.126,-36.014 10.102,-34.403 9.077,-32.793 M 13.762,-10.102 C 13.469,-9.076 12.883,-8.345 12.591,-7.759 C 14.64,-7.759 18.446,-8.491 20.935,-9.076 C 21.521,-10.102 22.545,-11.272 22.985,-12.15 C 20.203,-11.126 16.397,-10.248 13.762,-10.102 M 15.372,-66.61 C 14.933,-71.002 14.347,-75.833 13.176,-79.493 C 15.958,-75.833 19.032,-70.27 20.35,-67.196 C 18.739,-66.903 17.129,-66.61 15.372,-66.61 M 13.762,-90.473 C 14.055,-91.351 14.201,-92.083 14.494,-92.815 C 15.226,-92.522 16.543,-92.083 17.275,-91.791 C 16.25,-91.644 14.64,-91.059 13.762,-90.473 M 25.474,-29.279 C 23.278,-28.84 20.935,-28.4 18.739,-28.108 C 17.422,-26.937 16.836,-26.498 15.519,-25.326 C 15.226,-23.862 14.64,-21.228 13.908,-18.885 C 18.3,-20.642 23.131,-23.131 26.937,-25.766 C 26.644,-27.083 26.059,-28.108 25.474,-29.279 M 14.494,-13.614 L 14.494,-12.59 C 17.129,-12.736 23.278,-14.347 24.302,-15.371 C 21.082,-14.493 17.861,-13.907 14.494,-13.614 M 14.933,-31.183 C 15.519,-35.867 16.104,-40.698 16.25,-45.383 C 20.203,-45.676 24.742,-46.408 28.255,-47.725 C 27.962,-47.432 27.523,-46.408 27.523,-46.115 C 28.548,-41.869 28.841,-36.892 28.841,-33.524 C 24.449,-32.061 19.764,-31.183 14.933,-31.183 M 15.665,-73.637 C 16.104,-71.588 16.397,-69.392 16.543,-67.781 C 17.129,-67.928 17.714,-67.928 18.3,-68.074 C 17.714,-69.831 16.543,-72.027 15.665,-73.637 M 16.397,-47.725 C 16.397,-52.117 16.25,-58.119 15.665,-63.682 C 18.154,-63.682 20.643,-64.268 22.838,-65 C 22.545,-64.561 22.106,-63.829 22.106,-63.536 C 24.302,-58.851 25.62,-54.606 26.937,-49.482 C 23.863,-48.311 19.471,-47.725 16.397,-47.725 M 22.838,-67.928 C 21.374,-71.441 18.886,-76.419 16.25,-79.932 C 19.618,-77.151 23.131,-73.491 26.206,-69.685 C 25.327,-69.099 24.01,-68.367 22.838,-67.928 M 17.129,-38.648 C 16.982,-36.745 16.836,-34.842 16.543,-32.646 C 17.714,-32.793 18.3,-32.793 19.471,-32.939 C 20.203,-33.671 20.643,-34.257 21.374,-34.988 C 19.911,-36.452 18.739,-37.478 17.129,-38.648 M 20.643,-62.95 C 19.471,-62.658 18.154,-62.511 17.129,-62.365 C 17.129,-61.926 17.129,-61.34 17.275,-61.047 C 18.154,-60.461 18.886,-60.022 19.764,-59.583 C 20.203,-60.608 20.643,-61.34 20.935,-62.218 C 20.789,-62.511 20.789,-62.658 20.643,-62.95 M 17.422,-57.827 C 17.568,-56.802 17.568,-55.338 17.568,-54.313 C 18.007,-55.338 18.3,-55.923 18.739,-57.095 C 18.3,-57.387 18.007,-57.534 17.422,-57.827 M 25.913,-45.529 C 23.278,-44.797 20.35,-44.211 17.568,-44.065 L 17.422,-42.162 C 19.911,-40.405 21.374,-39.234 23.424,-37.185 C 24.595,-38.502 25.474,-39.673 26.644,-41.137 C 26.499,-42.309 26.206,-44.358 25.913,-45.529 M 17.861,-88.13 C 18.739,-88.863 20.789,-89.595 21.374,-89.595 C 21.96,-89.302 23.424,-88.57 24.302,-87.838 C 22.545,-88.277 19.764,-88.423 17.861,-88.13 M 28.255,-71.295 C 26.206,-74.077 22.106,-78.468 18.593,-81.104 C 22.545,-79.2 26.937,-76.419 29.865,-73.784 C 29.573,-72.905 28.987,-72.027 28.255,-71.295 M 24.01,-53.728 C 23.424,-54.167 22.399,-55.045 21.374,-55.484 C 20.496,-53.288 19.618,-51.239 18.593,-49.189 C 21.521,-49.335 23.863,-49.921 25.034,-50.214 C 24.595,-51.531 24.449,-52.556 24.01,-53.728 M 20.057,-85.349 C 22.399,-85.642 25.327,-85.349 27.523,-84.471 C 28.109,-83.885 28.987,-82.567 29.28,-81.835 C 27.084,-83.153 22.985,-84.91 20.057,-85.349 M 20.203,-83.007 C 23.57,-82.275 27.523,-80.518 30.305,-79.054 C 30.598,-78.029 30.744,-77.004 30.451,-76.126 C 28.401,-78.029 24.01,-81.25 20.203,-83.007 M 20.643,-18.445 C 22.692,-18.738 24.302,-19.178 26.059,-19.764 C 26.352,-20.349 26.352,-20.935 26.499,-21.521 C 24.595,-20.349 22.985,-19.471 20.643,-18.445 M 21.374,-73.491 C 22.106,-72.32 22.985,-70.563 23.424,-69.685 C 23.424,-69.831 23.57,-70.124 23.717,-70.417 C 23.131,-71.295 22.106,-72.612 21.374,-73.491 M 28.694,-50.067 C 27.523,-56.216 26.059,-60.608 24.01,-65.439 C 25.766,-66.171 27.084,-66.903 28.694,-68.221 C 28.694,-67.781 28.694,-67.196 28.548,-67.049 C 31.33,-63.243 34.111,-58.998 36.014,-54.606 C 33.964,-52.703 31.33,-51.092 28.694,-50.067 M 26.352,-15.664 C 26.059,-14.054 25.474,-13.029 24.888,-11.565 C 25.766,-12.59 26.791,-14.493 27.523,-16.689 C 27.23,-16.396 26.499,-15.957 26.352,-15.664 M 27.084,-36.892 C 26.644,-36.307 26.059,-35.574 25.474,-34.988 L 26.059,-34.11 C 26.644,-34.257 26.791,-34.257 27.23,-34.403 C 27.23,-35.574 27.23,-35.867 27.084,-36.892 M 27.669,-65.585 C 27.084,-65.146 26.352,-64.854 25.62,-64.415 C 26.937,-61.633 28.694,-56.655 29.573,-52.556 C 29.865,-52.556 29.865,-52.41 30.158,-52.117 C 31.476,-52.849 33.086,-53.728 34.257,-54.606 C 32.647,-58.705 29.719,-62.95 27.669,-65.585 M 30.451,-14.786 C 30.305,-14.347 30.012,-13.614 29.719,-13.176 C 31.33,-14.054 32.94,-15.225 33.964,-16.835 C 32.793,-16.104 31.622,-15.518 30.451,-14.786 M 37.332,-55.777 C 35.136,-60.901 32.647,-64.854 29.865,-69.246 C 31.183,-70.563 31.622,-71.588 32.208,-73.637 C 32.5,-72.905 32.647,-72.32 32.793,-71.588 C 35.868,-68.806 38.503,-65.732 40.992,-61.926 C 40.26,-59.876 38.942,-57.827 37.332,-55.777 M 31.915,-80.518 C 31.33,-81.835 30.744,-82.86 30.012,-83.885 C 30.744,-83.446 31.33,-83.007 31.769,-82.421 C 33.525,-81.104 37.039,-77.736 38.063,-75.833 C 36.6,-77.151 34.697,-78.908 31.915,-80.518 M 31.183,-24.741 C 31.33,-23.423 31.33,-22.545 31.33,-21.521 C 33.818,-22.691 36.453,-24.302 38.649,-26.059 C 38.942,-27.962 39.235,-29.572 38.942,-32.061 C 36.307,-28.986 34.111,-26.937 31.183,-24.741 M 33.086,-45.09 C 32.354,-44.065 31.915,-43.479 31.33,-42.601 C 31.622,-40.552 31.915,-38.209 31.915,-36.014 C 33.379,-36.599 34.989,-37.331 36.893,-38.648 C 35.721,-41.137 34.697,-42.894 33.086,-45.09 M 32.354,-70.27 C 32.208,-69.831 32.062,-69.685 31.769,-69.246 C 34.404,-67.342 36.307,-65.585 38.063,-63.975 C 36.6,-66.171 33.672,-69.099 32.354,-70.27 M 31.915,-31.329 C 31.915,-30.45 31.915,-30.157 31.769,-29.279 C 33.818,-30.89 34.55,-31.621 36.453,-33.671 C 34.843,-32.793 33.672,-32.061 31.915,-31.329 M 39.381,-71.295 C 38.21,-72.466 35.429,-74.662 33.964,-75.541 C 33.964,-75.101 33.818,-74.662 33.818,-74.516 C 35.282,-73.052 38.063,-70.27 39.528,-68.221 C 39.674,-69.246 39.528,-70.563 39.381,-71.295 M 34.697,-63.39 C 35.429,-62.365 36.746,-60.169 37.185,-58.851 C 37.332,-59.291 37.624,-60.022 37.771,-60.315 C 37.332,-61.193 35.575,-62.658 34.697,-63.39 M 36.014,-50.067 C 35.721,-49.335 35.136,-48.311 34.697,-47.579 C 35.721,-46.261 37.624,-43.772 38.503,-42.162 C 38.063,-44.211 36.893,-48.018 36.014,-50.067 M 41.138,-55.777 C 40.699,-55.045 40.113,-54.167 39.528,-53.581 C 40.845,-49.921 41.577,-46.847 42.163,-43.333 C 43.334,-44.651 44.212,-46.115 44.651,-48.164 C 43.919,-50.653 42.602,-53.728 41.138,-55.777 M 40.552,-36.014 C 40.552,-34.696 40.699,-31.621 40.26,-28.547 C 41.138,-31.183 41.284,-35.867 41.138,-38.063 C 40.845,-37.331 40.406,-36.599 40.552,-36.014 M 42.749,-37.331 C 43.041,-35.135 42.749,-32.793 42.309,-30.011 C 44.651,-33.524 46.115,-38.209 45.53,-42.455 C 44.651,-39.966 43.919,-39.088 42.749,-37.331 M 42.749,-61.486 C 42.602,-60.901 42.456,-59.583 42.456,-59.291 C 43.919,-57.095 45.237,-53.288 45.969,-50.507 C 45.969,-53.728 44.359,-58.412 42.749,-61.486 M 43.773,-64.415 C 43.773,-63.536 43.627,-62.95 43.627,-62.365 C 44.359,-61.193 44.944,-59.583 45.53,-58.266 C 45.53,-60.315 44.505,-62.658 43.773,-64.415"
               id="path2436"
               style="fill:#000000;fill-opacity:1;fill-rule:nonzero;stroke:none" />
          </g>
        </g>
      </g>
    </g>
    <g
       transform="matrix(4.4345857,0,0,-4.4345857,-76.144504,1187.3121)"
       id="g2438">
      <g
         clip-path="url(#clipPath2442)"
         id="g2440">
        <g
           transform="matrix(0.1639252,0,0,-0.1639252,-109.40939,-233.21198)"
           id="g2446">
          <g
             transform="translate(1145.2159,-2176.0596)"
             id="g2448">
            <path
               d="M 0,0 L -26.059,0 L -34.549,-37.917 L -43.187,0 L -69.246,0 L -74.516,-91.937 L -52.556,-91.937 L -51.239,-34.989 L -51.092,-34.989 L -42.455,-73.198 L -26.644,-73.198 L -18.153,-34.989 L -18.007,-34.989 L -16.689,-91.937 L 5.27,-91.937 L 0,0 z M 35.282,-72.027 L 35.282,-56.802 L 57.534,-56.802 L 57.534,-37.478 L 35.282,-37.478 L 35.282,-19.91 L 62.219,-19.91 L 62.219,0 L 13.469,0 L 13.469,-91.937 L 62.219,-91.937 L 62.219,-72.027 L 35.282,-72.027 z M 71.442,0 L 71.442,-91.937 L 94.133,-91.937 L 94.133,-20.495 L 120.192,-20.495 L 120.192,0 L 71.442,0 z M 152.106,-71.881 L 152.106,0 L 129.414,0 L 129.414,-71.881 L 108.187,-71.881 L 108.187,-91.937 L 172.748,-91.937 L 172.748,-71.881 L 152.106,-71.881 z M 251.363,0 L 225.304,0 L 216.814,-37.917 L 208.176,0 L 182.117,0 L 176.847,-91.937 L 198.953,-91.937 L 200.124,-34.989 L 200.271,-34.989 L 208.907,-73.198 L 224.719,-73.198 L 233.21,-34.989 L 233.356,-34.989 L 234.674,-91.937 L 256.633,-91.937 L 251.363,0 z M 303.773,0 L 280.495,0 C 271.419,0 263.953,-7.466 263.953,-16.689 L 263.953,-75.248 C 263.953,-84.471 271.419,-91.937 280.495,-91.937 L 303.773,-91.937 C 312.996,-91.937 320.462,-84.471 320.462,-75.248 L 320.462,-16.689 C 320.462,-7.466 312.996,0 303.773,0 M 298.502,-73.052 L 286.205,-73.052 L 286.205,-20.057 L 298.502,-20.057 L 298.502,-73.052 z M 366.431,0 L 345.35,0 C 336.273,0 328.807,-7.466 328.807,-16.689 L 328.807,-75.248 C 328.807,-84.471 336.273,-91.937 345.35,-91.937 L 366.431,-91.937 C 375.8,-91.937 383.266,-84.471 383.266,-75.248 L 383.266,-58.12 L 361.893,-58.12 L 361.893,-73.052 L 351.791,-73.052 L 351.791,-20.057 L 361.893,-20.057 L 361.893,-34.696 L 383.266,-34.696 L 383.266,-16.689 C 383.266,-7.466 375.8,0 366.431,0 M 428.21,0 L 428.21,-36.453 L 414.888,-36.453 L 414.888,0 L 392.197,0 L 392.197,-91.937 L 414.888,-91.937 L 414.888,-57.68 L 428.21,-57.68 L 428.21,-91.937 L 450.902,-91.937 L 450.902,0 L 428.21,0 z M 482.816,-72.027 L 482.816,-56.802 L 505.069,-56.802 L 505.069,-37.478 L 482.816,-37.478 L 482.816,-19.91 L 509.753,-19.91 L 509.753,0 L 461.15,0 L 461.15,-91.937 L 509.753,-91.937 L 509.753,-72.027 L 482.816,-72.027"
               id="path2450"
               style="fill:#006eae;fill-opacity:1;fill-rule:nonzero;stroke:none" />
          </g>
        </g>
      </g>
    </g>
  </g>
</svg>
